<?xml version="1.0" encoding="utf-8"?>
<!-- Generator: Adobe Illustrator 21.0.0, SVG Export Plug-In . SVG Version: 6.00 Build 0)  -->
<svg version="1.1" id="Layer_1" xmlns="http://www.w3.org/2000/svg" xmlns:xlink="http://www.w3.org/1999/xlink" x="0px" y="0px"
	 viewBox="0 0 24 24" style="enable-background:new 0 0 24 24;" xml:space="preserve">
<style type="text/css">
	.st0{fill:#1B75BB;}
	.st1{fill:#FFFFFF;}
</style>
<g>
	<path class="st0" d="M0,22.1c0,1,0.8,1.9,1.9,1.9h20.2c1,0,1.9-0.8,1.9-1.9V1.9c0-1-0.8-1.9-1.9-1.9H1.9C0.8,0,0,0.8,0,1.9V22.1z"
		/>
	<g>
		<g>
			<path class="st1" d="M11.6,8.1c0.5,0,0.9-0.2,1.3-0.5c0.4-0.4,0.5-0.8,0.5-1.3c0-0.5-0.2-1-0.5-1.3c-0.4-0.3-0.8-0.5-1.3-0.5
				c-0.5,0-0.9,0.2-1.3,0.5C9.9,5.4,9.8,5.8,9.8,6.3c0,0.5,0.2,0.9,0.5,1.3C10.7,8,11.1,8.1,11.6,8.1z"/>
			<path class="st1" d="M15.5,16.8h-1.2c0,0-0.6,0-0.6-0.5c-0.1-0.7-0.1-1.3-0.1-1.5l-0.1-1.7c0-0.1,0-0.2,0-0.4c0-0.4,0-0.7,0-0.9
				c0-0.1,0-0.2,0-0.3l0-0.7V9c-1.7,0.8-3.2,1.3-4.6,1.5l-0.3,1.2c0.2,0,0.5,0.1,0.7,0.1c0.3,0,0.6-0.1,0.9-0.2l0,2.5
				c0,0.6,0,1.4,0,2.2c0,0.5-0.5,0.5-0.5,0.5H8.5v2.7h1.8c0,0,0,0,0,0c0,0,0,0,0,0h5.1V16.8z"/>
		</g>
	</g>
</g>
</svg>
