<svg xmlns="http://www.w3.org/2000/svg" xmlns:xlink="http://www.w3.org/1999/xlink" width="23" height="24" viewBox="0 0 23 24">
  <defs>
    <clipPath id="clip-path">
      <rect id="Rectangle_18095" data-name="Rectangle 18095" width="23" height="24" transform="translate(22.981)" fill="#fff"/>
    </clipPath>
  </defs>
  <g id="schedule" transform="translate(-22.981)" clip-path="url(#clip-path)">
    <g id="schedule-2" data-name="schedule" transform="translate(22.481)">
      <g id="Group_5741" data-name="Group 5741">
        <path id="Path_10210" data-name="Path 10210" d="M11.542,20H2.4A1.6,1.6,0,0,1,.8,18.4V16.8H13.079Z" fill="#d3dcfb"/>
        <path id="Path_10211" data-name="Path 10211" d="M21.6,7.2V18.4H2.4A1.6,1.6,0,0,1,.8,16.8V7.2L12,3.2Z" fill="#ebf5fc"/>
        <g id="Group_5734" data-name="Group 5734">
          <path id="Path_10212" data-name="Path 10212" d="M3.625,10.4h-.85a.375.375,0,0,1-.375-.375v-.85A.375.375,0,0,1,2.775,8.8h.85A.375.375,0,0,1,4,9.175v.85A.375.375,0,0,1,3.625,10.4Z" fill="#3c58a0"/>
          <path id="Path_10213" data-name="Path 10213" d="M6.825,10.4h-.85a.375.375,0,0,1-.375-.375v-.85A.375.375,0,0,1,5.975,8.8h.85a.375.375,0,0,1,.375.375v.85A.375.375,0,0,1,6.825,10.4Z" fill="#3c58a0"/>
          <path id="Path_10214" data-name="Path 10214" d="M10.025,10.4h-.85a.375.375,0,0,1-.375-.375v-.85A.375.375,0,0,1,9.175,8.8h.85a.375.375,0,0,1,.375.375v.85A.375.375,0,0,1,10.025,10.4Z" fill="#3c58a0"/>
          <path id="Path_10215" data-name="Path 10215" d="M13.225,10.4h-.85A.375.375,0,0,1,12,10.025v-.85a.375.375,0,0,1,.375-.375h.85a.375.375,0,0,1,.375.375v.85A.375.375,0,0,1,13.225,10.4Z" fill="#3c58a0"/>
          <path id="Path_10216" data-name="Path 10216" d="M16.425,10.4h-.85a.375.375,0,0,1-.375-.375v-.85a.375.375,0,0,1,.375-.375h.85a.375.375,0,0,1,.375.375v.85A.375.375,0,0,1,16.425,10.4Z" fill="#3c58a0"/>
          <path id="Path_10217" data-name="Path 10217" d="M19.625,10.4h-.85a.375.375,0,0,1-.375-.375v-.85a.375.375,0,0,1,.375-.375h.85A.375.375,0,0,1,20,9.175v.85A.375.375,0,0,1,19.625,10.4Z" fill="#3c58a0"/>
          <path id="Path_10218" data-name="Path 10218" d="M3.625,13.6h-.85a.375.375,0,0,1-.375-.375v-.85A.375.375,0,0,1,2.775,12h.85A.375.375,0,0,1,4,12.375v.85A.375.375,0,0,1,3.625,13.6Z" fill="#3c58a0"/>
          <path id="Path_10219" data-name="Path 10219" d="M6.825,13.6h-.85a.375.375,0,0,1-.375-.375v-.85A.375.375,0,0,1,5.975,12h.85a.375.375,0,0,1,.375.375v.85A.375.375,0,0,1,6.825,13.6Z" fill="#3c58a0"/>
          <path id="Path_10220" data-name="Path 10220" d="M10.025,13.6h-.85a.375.375,0,0,1-.375-.375v-.85A.375.375,0,0,1,9.175,12h.85a.375.375,0,0,1,.375.375v.85A.375.375,0,0,1,10.025,13.6Z" fill="#3c58a0"/>
          <path id="Path_10221" data-name="Path 10221" d="M13.6,13.6V12.4a.4.4,0,0,0-.4-.4h-.8a.4.4,0,0,0-.4.4v.8a.4.4,0,0,0,.4.4Z" fill="#3c58a0"/>
          <path id="Path_10222" data-name="Path 10222" d="M3.625,16.8h-.85a.375.375,0,0,1-.375-.375v-.85a.375.375,0,0,1,.375-.375h.85A.375.375,0,0,1,4,15.575v.85A.375.375,0,0,1,3.625,16.8Z" fill="#3c58a0"/>
          <path id="Path_10223" data-name="Path 10223" d="M6.825,16.8h-.85a.375.375,0,0,1-.375-.375v-.85a.375.375,0,0,1,.375-.375h.85a.375.375,0,0,1,.375.375v.85A.375.375,0,0,1,6.825,16.8Z" fill="#3c58a0"/>
          <path id="Path_10224" data-name="Path 10224" d="M10.025,16.8h-.85a.375.375,0,0,1-.375-.375v-.85a.375.375,0,0,1,.375-.375h.85a.375.375,0,0,1,.375.375v.85A.375.375,0,0,1,10.025,16.8Z" fill="#3c58a0"/>
        </g>
        <path id="Path_10225" data-name="Path 10225" d="M19.613,8.8h-.827a.386.386,0,0,0-.142.027.386.386,0,0,1,.245.359v.827a.386.386,0,0,1-.245.359.385.385,0,0,0,.142.027h.827A.386.386,0,0,0,20,10.014V9.186A.386.386,0,0,0,19.613,8.8Z" fill="#2a428c"/>
        <path id="Path_10226" data-name="Path 10226" d="M16.413,8.8h-.827a.386.386,0,0,0-.142.027.386.386,0,0,1,.245.359v.827a.386.386,0,0,1-.245.359.385.385,0,0,0,.142.027h.827a.386.386,0,0,0,.386-.386V9.186A.386.386,0,0,0,16.413,8.8Z" fill="#2a428c"/>
        <path id="Path_10227" data-name="Path 10227" d="M13.214,8.8h-.827a.386.386,0,0,0-.142.027.386.386,0,0,1,.245.359v.827a.386.386,0,0,1-.245.359.385.385,0,0,0,.142.027h.827a.386.386,0,0,0,.386-.386V9.186A.386.386,0,0,0,13.214,8.8Z" fill="#2a428c"/>
        <path id="Path_10228" data-name="Path 10228" d="M10.014,8.8H9.186a.386.386,0,0,0-.142.027.386.386,0,0,1,.245.359v.827a.386.386,0,0,1-.245.359.385.385,0,0,0,.142.027h.827a.386.386,0,0,0,.386-.386V9.186A.386.386,0,0,0,10.014,8.8Z" fill="#2a428c"/>
        <path id="Path_10229" data-name="Path 10229" d="M6.814,8.8H5.986a.386.386,0,0,0-.142.027.386.386,0,0,1,.245.359v.827a.386.386,0,0,1-.245.359.385.385,0,0,0,.142.027h.827a.386.386,0,0,0,.386-.386V9.186A.386.386,0,0,0,6.814,8.8Z" fill="#2a428c"/>
        <path id="Path_10230" data-name="Path 10230" d="M3.614,8.8H2.786a.386.386,0,0,0-.142.027.386.386,0,0,1,.245.359v.827a.386.386,0,0,1-.245.359.385.385,0,0,0,.142.027h.827A.386.386,0,0,0,4,10.014V9.186A.386.386,0,0,0,3.614,8.8Z" fill="#2a428c"/>
        <path id="Path_10231" data-name="Path 10231" d="M3.614,12H2.786a.386.386,0,0,0-.142.027.386.386,0,0,1,.245.359v.827a.386.386,0,0,1-.245.359.385.385,0,0,0,.142.027h.827A.386.386,0,0,0,4,13.214v-.827A.386.386,0,0,0,3.614,12Z" fill="#2a428c"/>
        <path id="Path_10232" data-name="Path 10232" d="M3.614,15.2H2.786a.386.386,0,0,0-.142.027.386.386,0,0,1,.245.359v.827a.386.386,0,0,1-.245.359.385.385,0,0,0,.142.027h.827A.386.386,0,0,0,4,16.414v-.827a.386.386,0,0,0-.386-.386Z" fill="#2a428c"/>
        <path id="Path_10233" data-name="Path 10233" d="M6.814,12H5.986a.386.386,0,0,0-.142.027.386.386,0,0,1,.245.359v.827a.386.386,0,0,1-.245.359.385.385,0,0,0,.142.027h.827a.386.386,0,0,0,.386-.386v-.827A.386.386,0,0,0,6.814,12Z" fill="#2a428c"/>
        <path id="Path_10234" data-name="Path 10234" d="M6.814,15.2H5.986a.386.386,0,0,0-.142.027.386.386,0,0,1,.245.359v.827a.386.386,0,0,1-.245.359.385.385,0,0,0,.142.027h.827a.386.386,0,0,0,.386-.386v-.827a.386.386,0,0,0-.386-.386Z" fill="#2a428c"/>
        <path id="Path_10235" data-name="Path 10235" d="M10.014,12H9.186a.386.386,0,0,0-.142.027.386.386,0,0,1,.245.359v.827a.386.386,0,0,1-.245.359.385.385,0,0,0,.142.027h.827a.386.386,0,0,0,.386-.386v-.827A.386.386,0,0,0,10.014,12Z" fill="#2a428c"/>
        <path id="Path_10236" data-name="Path 10236" d="M13.6,13.6V12.386A.386.386,0,0,0,13.214,12h-.827a.386.386,0,0,0-.142.027.386.386,0,0,1,.245.359v.827a.386.386,0,0,1-.245.359.385.385,0,0,0,.142.027H13.6Z" fill="#2a428c"/>
        <path id="Path_10237" data-name="Path 10237" d="M10.014,15.2H9.186a.386.386,0,0,0-.142.027.386.386,0,0,1,.245.359v.827a.386.386,0,0,1-.245.359.385.385,0,0,0,.142.027h.827a.386.386,0,0,0,.386-.386v-.827a.386.386,0,0,0-.386-.386Z" fill="#2a428c"/>
        <path id="Path_10238" data-name="Path 10238" d="M20.49,6.737V18.4H21.6V7.2Z" fill="#d3dcfb"/>
        <path id="Path_10239" data-name="Path 10239" d="M21.6,7.2v-4A1.6,1.6,0,0,0,20,1.6H2.4A1.6,1.6,0,0,0,.8,3.2v4Z" fill="#ff4155"/>
        <g id="Group_5740" data-name="Group 5740">
          <g id="Group_5739" data-name="Group 5739">
            <g id="Group_5735" data-name="Group 5735">
              <path id="Path_10240" data-name="Path 10240" d="M5.841,3.562H4.8a.362.362,0,1,1,0-.724H5.841a.362.362,0,1,1,0,.724Z" fill="#e80054"/>
            </g>
            <g id="Group_5736" data-name="Group 5736">
              <path id="Path_10241" data-name="Path 10241" d="M8.4,3.562H7.358a.362.362,0,0,1,0-.724H8.4a.362.362,0,0,1,0,.724Z" fill="#e80054"/>
            </g>
            <g id="Group_5737" data-name="Group 5737">
              <path id="Path_10242" data-name="Path 10242" d="M15.042,3.562H14a.362.362,0,1,1,0-.724h1.041a.362.362,0,0,1,0,.724Z" fill="#e80054"/>
            </g>
            <g id="Group_5738" data-name="Group 5738">
              <path id="Path_10243" data-name="Path 10243" d="M17.6,3.562H16.559a.362.362,0,1,1,0-.724H17.6a.362.362,0,0,1,0,.724Z" fill="#e80054"/>
            </g>
          </g>
        </g>
        <path id="Path_10244" data-name="Path 10244" d="M7.6,3a1,1,0,0,1-2,0V1a1,1,0,1,1,2,0V3Z" fill="#ebf5fc"/>
        <path id="Path_10245" data-name="Path 10245" d="M16.8,3a1,1,0,0,1-2,0V1a1,1,0,1,1,2,0V3Z" fill="#ebf5fc"/>
        <path id="Path_10246" data-name="Path 10246" d="M15.8,0a1,1,0,0,0-.555.168A1,1,0,0,1,15.691,1V3a1,1,0,0,1-.445.832A1,1,0,0,0,16.8,3V1A1,1,0,0,0,15.8,0Z" fill="#d3dcfb"/>
        <path id="Path_10247" data-name="Path 10247" d="M6.6,0a1,1,0,0,0-.555.168A1,1,0,0,1,6.49,1V3a1,1,0,0,1-.445.832A1,1,0,0,0,7.6,3V1a1,1,0,0,0-1-1Z" fill="#d3dcfb"/>
        <path id="Path_10248" data-name="Path 10248" d="M20,1.6H18.89a1.6,1.6,0,0,1,1.6,1.6v4H21.6v-4A1.6,1.6,0,0,0,20,1.6Z" fill="#e80054"/>
        <path id="Path_10249" data-name="Path 10249" d="M.8,5.238H21.6v.724H.8Z" fill="#e80054"/>
      </g>
      <circle id="Ellipse_386" data-name="Ellipse 386" cx="6" cy="6" r="6" transform="translate(11.2 12)" fill="#4fabf7"/>
      <circle id="Ellipse_387" data-name="Ellipse 387" cx="4.4" cy="4.4" r="4.4" transform="translate(12.8 13.6)" fill="#ebf5fc"/>
      <g id="Group_5743" data-name="Group 5743">
        <g id="Group_5742" data-name="Group 5742">
          <path id="Path_10250" data-name="Path 10250" d="M17.2,17.562a.362.362,0,0,1-.362-.362v-2a.362.362,0,1,1,.724,0v2A.362.362,0,0,1,17.2,17.562Z" fill="#3c58a0"/>
        </g>
      </g>
      <g id="Group_5745" data-name="Group 5745">
        <g id="Group_5744" data-name="Group 5744">
          <path id="Path_10251" data-name="Path 10251" d="M19.2,18.362H18a.362.362,0,0,1,0-.724h1.2a.362.362,0,1,1,0,.724Z" fill="#3c58a0"/>
        </g>
      </g>
      <path id="Path_10252" data-name="Path 10252" d="M17.2,12c-.187,0-.372.009-.555.026a6,6,0,0,1,0,11.948c.183.017.368.026.555.026a6,6,0,0,0,0-12Z" fill="#1886ea"/>
      <path id="Path_10253" data-name="Path 10253" d="M17.2,13.6a4.443,4.443,0,0,0-.555.035,4.4,4.4,0,0,1,0,8.731A4.4,4.4,0,1,0,17.2,13.6Z" fill="#d3dcfb"/>
      <circle id="Ellipse_388" data-name="Ellipse 388" cx="0.8" cy="0.8" r="0.8" transform="translate(16.4 17.2)" fill="#ffdd40"/>
    </g>
  </g>
</svg>
