<svg xmlns="http://www.w3.org/2000/svg" xmlns:xlink="http://www.w3.org/1999/xlink" width="24" height="24" viewBox="0 0 24 24">
  <defs>
    <clipPath id="clip-path">
      <rect id="Rectangle_18008" data-name="Rectangle 18008" width="24" height="24" transform="translate(37 5)" fill="#fff" opacity="0.502"/>
    </clipPath>
    <linearGradient id="linear-gradient" x1="0.5" y1="1" x2="0.5" gradientUnits="objectBoundingBox">
      <stop offset="0" stop-color="#fd5900"/>
      <stop offset="1" stop-color="#ffde00"/>
    </linearGradient>
    <linearGradient id="linear-gradient-2" x1="0.5" y1="1" x2="0.5" gradientUnits="objectBoundingBox">
      <stop offset="0" stop-color="#ffe59a"/>
      <stop offset="1" stop-color="#ffffd5"/>
    </linearGradient>
  </defs>
  <g id="specials-selected" transform="translate(-37 -5)" clip-path="url(#clip-path)">
    <g id="best-seller" transform="translate(37 5)">
      <path id="Path_10134" data-name="Path 10134" d="M21.121,10.107a.571.571,0,0,1,0-.534l.3-.558A1.99,1.99,0,0,0,20.842,6.5l-.508-.375a.57.57,0,0,1-.232-.481l.024-.631a1.99,1.99,0,0,0-1.61-2.018l-.62-.117a.57.57,0,0,1-.418-.333l-.252-.579A1.99,1.99,0,0,0,14.9.843l-.61.164a.571.571,0,0,1-.521-.119L13.291.476a1.99,1.99,0,0,0-2.582,0l-.478.412a.57.57,0,0,1-.521.119L9.1.843a1.99,1.99,0,0,0-2.326,1.12l-.252.579a.57.57,0,0,1-.418.333l-.62.117A1.99,1.99,0,0,0,3.874,5.01l.024.631a.57.57,0,0,1-.232.481L3.158,6.5a1.99,1.99,0,0,0-.574,2.517l.3.558a.57.57,0,0,1,0,.534l-.3.558a1.99,1.99,0,0,0,.574,2.517l.508.375a.57.57,0,0,1,.232.481l-.024.631a1.99,1.99,0,0,0,1.61,2.018l.326.061.048,1.5,3.47,1.763,1.505-.714a1.992,1.992,0,0,0,2.32.012l1.239.843,3.47-1.77.309-1.633.346-.065a1.99,1.99,0,0,0,1.61-2.019l-.024-.631a.57.57,0,0,1,.232-.481l.508-.375a1.99,1.99,0,0,0,.574-2.517Z" fill="url(#linear-gradient)"/>
      <g id="Group_5659" data-name="Group 5659">
        <g id="Group_5658" data-name="Group 5658">
          <path id="Path_10135" data-name="Path 10135" d="M18.33,9.839A6.33,6.33,0,1,0,12,16.169a6.337,6.337,0,0,0,6.33-6.33Zm-3.163-.366L14.094,10.52,14.347,12a.7.7,0,0,1-1.021.741L12,12.041l-1.326.7A.7.7,0,0,1,9.653,12l.253-1.477L8.833,9.474a.7.7,0,0,1,.39-1.2l1.483-.215.663-1.344a.7.7,0,0,1,1.261,0l.663,1.344,1.483.215a.7.7,0,0,1,.39,1.2Zm-4.936,9.317a.571.571,0,0,0-.521-.119l-.61.164a1.99,1.99,0,0,1-2.326-1.12l-.252-.579A.571.571,0,0,0,6.1,16.8l-.295-.056L3.568,20.8a.7.7,0,0,0,.661,1.042l2.059-.133L7.2,23.6a.7.7,0,0,0,.615.4h.018a.7.7,0,0,0,.617-.365L10.832,19.3c-.042-.031-.083-.063-.123-.1ZM20.41,20.8l-2.24-4.047L17.9,16.8a.57.57,0,0,0-.418.333l-.252.579A1.993,1.993,0,0,1,15.405,18.9a1.947,1.947,0,0,1-.505-.067l-.61-.164a.57.57,0,0,0-.521.119l-.478.412q-.067.058-.139.109l2.371,4.323A.7.7,0,0,0,16.14,24h.018a.7.7,0,0,0,.615-.4l.918-1.894,2.059.133A.7.7,0,0,0,20.41,20.8Z" fill="url(#linear-gradient-2)"/>
        </g>
      </g>
    </g>
  </g>
</svg>
