<?xml version="1.0" encoding="utf-8"?>
<!-- Generator: Adobe Illustrator 21.0.0, SVG Export Plug-In . SVG Version: 6.00 Build 0)  -->
<svg version="1.1" id="Layer_1" xmlns="http://www.w3.org/2000/svg" xmlns:xlink="http://www.w3.org/1999/xlink" x="0px" y="0px"
	 viewBox="0 0 24 24" style="enable-background:new 0 0 24 24;" xml:space="preserve">
<style type="text/css">
	.st0{fill:#E0EBFC;}
	.st1{fill:#3762CC;}
	.st2{fill:#B9BEFC;}
	.st3{fill:#FFEA92;}
	.st4{fill:#F9A7A7;}
</style>
<path class="st0" d="M21.9,23.7H2.1c-1,0-1.8-0.7-1.8-1.5V1.8c0-0.9,0.8-1.5,1.8-1.5h19.8c1,0,1.8,0.7,1.8,1.5v20.4
	C23.7,23,22.9,23.7,21.9,23.7z"/>
<path class="st1" d="M21.9,24H2.1C0.9,24,0,23.2,0,22.2V1.8C0,0.8,0.9,0,2.1,0h19.8C23.1,0,24,0.8,24,1.8v20.4
	C24,23.2,23.1,24,21.9,24z M2.1,0.5c-0.8,0-1.5,0.6-1.5,1.3v20.4c0,0.7,0.7,1.3,1.5,1.3h19.8c0.8,0,1.5-0.6,1.5-1.3V1.8
	c0-0.7-0.7-1.3-1.5-1.3H2.1z"/>
<g>
	<path class="st2" d="M19,4.2H5c-0.5,0-0.9-0.3-0.9-0.8S4.5,2.7,5,2.7h14c0.5,0,0.9,0.3,0.9,0.8C19.9,3.9,19.5,4.2,19,4.2L19,4.2z"
		/>
	<path class="st2" d="M21.1,7.4H2.9c-0.3,0-0.6-0.2-0.6-0.5c0-0.3,0.3-0.5,0.6-0.5h18.3c0.3,0,0.6,0.2,0.6,0.5
		C21.7,7.2,21.5,7.4,21.1,7.4z"/>
	<path class="st2" d="M21.1,9.7H2.9c-0.3,0-0.6-0.2-0.6-0.5c0-0.3,0.3-0.5,0.6-0.5h18.3c0.3,0,0.6,0.2,0.6,0.5
		C21.7,9.5,21.5,9.7,21.1,9.7z"/>
	<path class="st2" d="M21.1,12.1H2.9c-0.3,0-0.6-0.2-0.6-0.5c0-0.3,0.3-0.5,0.6-0.5h18.3c0.3,0,0.6,0.2,0.6,0.5
		C21.7,11.8,21.5,12.1,21.1,12.1z"/>
	<path class="st2" d="M21.1,14.4H2.9c-0.3,0-0.6-0.2-0.6-0.5s0.3-0.5,0.6-0.5h18.3c0.3,0,0.6,0.2,0.6,0.5S21.5,14.4,21.1,14.4z"/>
	<path class="st2" d="M21.1,16.7H2.9c-0.3,0-0.6-0.2-0.6-0.5c0-0.3,0.3-0.5,0.6-0.5h18.3c0.3,0,0.6,0.2,0.6,0.5
		C21.7,16.5,21.5,16.7,21.1,16.7z"/>
</g>
<path class="st3" d="M4.9,21.2H3.3c-0.3,0-0.5-0.2-0.5-0.4v-1.4c0-0.2,0.2-0.4,0.5-0.4h1.6c0.3,0,0.5,0.2,0.5,0.4v1.4
	C5.4,21,5.2,21.2,4.9,21.2z"/>
<path class="st2" d="M16.4,20.5H7.3c-0.3,0-0.5-0.2-0.5-0.4c0-0.2,0.2-0.4,0.5-0.4h9.1c0.3,0,0.5,0.2,0.5,0.4
	C16.8,20.3,16.6,20.5,16.4,20.5z"/>
<path class="st1" d="M4.9,21.5H3.3c-0.4,0-0.8-0.3-0.8-0.6v-1.4c0-0.4,0.3-0.6,0.8-0.6h1.6c0.4,0,0.8,0.3,0.8,0.6v1.4
	C5.7,21.2,5.4,21.5,4.9,21.5z M3.3,19.3c-0.1,0-0.2,0.1-0.2,0.1v1.4c0,0.1,0.1,0.1,0.2,0.1h1.6c0.1,0,0.2-0.1,0.2-0.1v-1.4
	c0-0.1-0.1-0.1-0.2-0.1H3.3z"/>
<path class="st4" d="M4.2,20.8C4.2,20.8,4.2,20.8,4.2,20.8c-0.1,0-0.2-0.1-0.3-0.1l-0.8-0.8c-0.1-0.1-0.1-0.3,0.1-0.5
	c0.2-0.1,0.4-0.1,0.5,0.1L4.3,20l2.6-2.1c0.2-0.1,0.4-0.1,0.5,0c0.1,0.1,0.1,0.3,0,0.5l-2.9,2.4C4.4,20.7,4.3,20.8,4.2,20.8
	L4.2,20.8z"/>
</svg>
