<svg xmlns="http://www.w3.org/2000/svg" xmlns:xlink="http://www.w3.org/1999/xlink" width="70" height="70" viewBox="0 0 70 70"><defs><style>.a{fill:#1c1c1c;}.b{clip-path:url(#a);}.c{fill:url(#b);}.d{fill:url(#c);}.e{fill:url(#d);}.f{fill:url(#e);}.g{fill:url(#g);}.h{fill:#f1fcff;}</style><clipPath id="a"><rect class="a" width="70" height="70" transform="translate(30 163)"/></clipPath><radialGradient id="b" cx="0.5" cy="0.5" r="0.75" gradientTransform="translate(0.156) scale(0.687 1)" gradientUnits="objectBoundingBox"><stop offset="0" stop-color="#eed7a2"/><stop offset="0.106" stop-color="#f1dcab"/><stop offset="0.437" stop-color="#f8e8c3"/><stop offset="0.744" stop-color="#fcefd2"/><stop offset="1" stop-color="#fef2d7"/></radialGradient><linearGradient id="c" x1="0.5" y1="1" x2="0.5" gradientUnits="objectBoundingBox"><stop offset="0" stop-color="#49cff0"/><stop offset="0.214" stop-color="#54d3f2"/><stop offset="0.595" stop-color="#73dff8"/><stop offset="1" stop-color="#9aedff"/></linearGradient><linearGradient id="d" x1="0.5" y1="1.023" x2="0.5" y2="-0.076" gradientUnits="objectBoundingBox"><stop offset="0" stop-color="#155cde"/><stop offset="0.278" stop-color="#1f7fe5"/><stop offset="0.569" stop-color="#279ceb"/><stop offset="0.82" stop-color="#2cafef"/><stop offset="1" stop-color="#2eb5f0"/></linearGradient><linearGradient id="e" x1="0.5" y1="1" x2="0.5" gradientUnits="objectBoundingBox"><stop offset="0" stop-color="#6ba5ed"/><stop offset="0.342" stop-color="#6dabee"/><stop offset="0.807" stop-color="#71bdf1"/><stop offset="1" stop-color="#74c6f3"/></linearGradient><linearGradient id="g" x1="0.5" y1="1" x2="0.5" gradientUnits="objectBoundingBox"><stop offset="0" stop-color="#3cb5ea"/><stop offset="0.246" stop-color="#47bced"/><stop offset="0.681" stop-color="#66cff5"/><stop offset="1" stop-color="#80dffc"/></linearGradient></defs><g class="b" transform="translate(-30 -163)"><g transform="translate(30 163)"><path class="c" d="M63.437,44.844h2.518a3.974,3.974,0,0,0,4.039-3.622,3.828,3.828,0,0,0-3.823-4.034h-.45a2.253,2.253,0,0,1-2.24-1.741,2.189,2.189,0,0,1,2.05-2.632,3.428,3.428,0,0,0,3.351-2.882,3.284,3.284,0,0,0-3.258-3.683H58.732a3.974,3.974,0,0,1-4.039-3.622,3.828,3.828,0,0,1,3.823-4.034H61.25a3.974,3.974,0,0,0,4.039-3.622,3.828,3.828,0,0,0-3.823-4.034h-38.5v4.375H11.7a3.974,3.974,0,0,0-4.039,3.622,3.828,3.828,0,0,0,3.823,4.034h8.2v7.656H4.922a2.734,2.734,0,0,0-2.734,2.734h0a2.734,2.734,0,0,0,2.734,2.734H6.016A2.734,2.734,0,0,1,8.75,38.828h0a2.734,2.734,0,0,1-2.734,2.734H3.467A3.407,3.407,0,0,0,0,44.668a3.282,3.282,0,0,0,3.277,3.457H8.633a2.27,2.27,0,0,1,2.275,1.82A2.19,2.19,0,0,1,8.75,52.5H7.842a3.407,3.407,0,0,0-3.463,3.105,3.282,3.282,0,0,0,3.277,3.457H49.219V57.969H63.275a3.393,3.393,0,0,0,3.431-2.995,3.281,3.281,0,0,0-3.283-3.568,3.071,3.071,0,0,1-2.769-1.457A3.325,3.325,0,0,1,63.437,44.844Z"/><path class="d" d="M47.031,56.875H16.406a3.281,3.281,0,0,1-3.281-3.281V9.844a3.281,3.281,0,0,1,3.281-3.281H47.031a3.281,3.281,0,0,1,3.281,3.281v43.75A3.281,3.281,0,0,1,47.031,56.875Z"/><path class="e" d="M47.031,56.875H16.406a3.281,3.281,0,0,1-3.281-3.281V9.844a3.281,3.281,0,0,1,3.281-3.281H47.031a3.281,3.281,0,0,1,3.281,3.281v43.75A3.281,3.281,0,0,1,47.031,56.875Z"/><path class="f" d="M33.906,30.625H20.781a2.187,2.187,0,0,1-2.187-2.187h0a2.187,2.187,0,0,1,2.187-2.187H33.906a2.187,2.187,0,0,1,2.187,2.187h0A2.187,2.187,0,0,1,33.906,30.625Zm2.187,15.312h0a2.187,2.187,0,0,0-2.187-2.187H20.781a2.187,2.187,0,0,0-2.187,2.187h0a2.187,2.187,0,0,0,2.187,2.187H33.906A2.187,2.187,0,0,0,36.094,45.937Zm-17.5-26.25h0a2.187,2.187,0,0,0,2.187,2.187H42.656a2.187,2.187,0,0,0,2.187-2.187h0A2.187,2.187,0,0,0,42.656,17.5H20.781A2.187,2.187,0,0,0,18.594,19.687Zm0,17.5h0a2.187,2.187,0,0,0,2.187,2.187H42.656a2.187,2.187,0,0,0,2.187-2.187h0A2.187,2.187,0,0,0,42.656,35H20.781A2.187,2.187,0,0,0,18.594,37.187Z"/><path class="d" d="M57.969,63.437H27.344a3.281,3.281,0,0,1-3.281-3.281V16.406a3.281,3.281,0,0,1,3.281-3.281H57.969a3.281,3.281,0,0,1,3.281,3.281v43.75A3.281,3.281,0,0,1,57.969,63.437Z"/><path class="g" d="M57.969,63.437H27.344a3.281,3.281,0,0,1-3.281-3.281V16.406a3.281,3.281,0,0,1,3.281-3.281H57.969a3.281,3.281,0,0,1,3.281,3.281v43.75A3.281,3.281,0,0,1,57.969,63.437Z"/><path class="h" d="M44.844,37.187H31.719A2.187,2.187,0,0,1,29.531,35h0a2.187,2.187,0,0,1,2.187-2.187H44.844A2.187,2.187,0,0,1,47.031,35h0A2.187,2.187,0,0,1,44.844,37.187Zm0,17.5H31.719A2.187,2.187,0,0,1,29.531,52.5h0a2.187,2.187,0,0,1,2.187-2.187H44.844A2.187,2.187,0,0,1,47.031,52.5h0A2.187,2.187,0,0,1,44.844,54.687ZM31.719,24.062H53.594a2.187,2.187,0,0,1,2.187,2.187h0a2.187,2.187,0,0,1-2.187,2.187H31.719a2.187,2.187,0,0,1-2.187-2.187h0A2.187,2.187,0,0,1,31.719,24.062Zm0,17.5H53.594a2.187,2.187,0,0,1,2.187,2.187h0a2.187,2.187,0,0,1-2.187,2.187H31.719a2.187,2.187,0,0,1-2.187-2.187h0A2.187,2.187,0,0,1,31.719,41.562Z"/></g></g></svg>